<svg width="69" height="60" viewBox="0 0 69 60" fill="none" xmlns="http://www.w3.org/2000/svg">
<path d="M36.0283 14.7459L36.1208 14.7735L36.1248 14.7689C36.5624 14.848 36.9964 14.586 37.1249 14.152C38.2966 10.2153 41.9877 7.46512 46.1001 7.46512C46.587 7.46512 46.9818 7.07024 46.9818 6.58338C46.9818 6.0965 46.5869 5.70164 46.1001 5.70164C41.0459 5.70164 36.7987 9.06673 35.435 13.6494C35.2958 14.1162 35.5618 14.6068 36.0283 14.7459Z" fill="#483EA8" stroke="#F9FFF9" stroke-width="0.3"/>
<path d="M56.3438 42.4384H51.9534C51.5494 42.4384 51.2217 42.1107 51.2217 41.7067C51.2217 41.3027 51.5494 40.9749 51.9534 40.9749H56.3438C62.3956 40.9749 67.3197 36.0509 67.3197 29.999C67.3197 23.9471 62.3956 19.023 56.3438 19.023H56.2382C56.026 19.023 55.8242 18.9311 55.6852 18.7706C55.5462 18.6101 55.4834 18.3974 55.5138 18.1873C55.5791 17.7315 55.612 17.2737 55.612 16.8279C55.612 11.5829 51.3444 7.31531 46.0995 7.31531C44.059 7.31531 42.1131 7.95296 40.4719 9.15978C40.1112 9.42478 39.599 9.30718 39.3905 8.91047C34.7425 0.0596993 22.6023 -1.12887 16.3082 6.57053C13.6568 9.81417 12.615 14.0336 13.4498 18.146C13.5418 18.6002 13.1942 19.0236 12.7327 19.0236H12.4395C6.3876 19.0236 1.46353 23.9477 1.46353 29.9996C1.46353 36.0514 6.3876 40.9755 12.4395 40.9755H16.8298C17.2338 40.9755 17.5615 41.3032 17.5615 41.7072C17.5615 42.1113 17.2338 42.439 16.8298 42.439H12.4395C5.5805 42.439 0 36.8585 0 29.9995C0 23.3329 5.27155 17.8742 11.8651 17.5731C11.2457 13.3066 12.4301 9.00295 15.1751 5.64437C21.9138 -2.5996 34.828 -1.67556 40.2871 7.51707C42.0287 6.42522 44.0215 5.85244 46.0992 5.85244C52.4538 5.85244 57.4892 11.261 57.0486 17.58C63.5813 17.9463 68.7829 23.3763 68.7829 29.999C68.7829 36.8585 63.2024 42.4384 56.3434 42.4384L56.3438 42.4384Z" fill="#483EA8"/>
<path d="M15.85 41.2935C15.85 51.4634 24.1237 59.737 34.2935 59.737C44.4634 59.737 52.737 51.4633 52.737 41.2935C52.737 31.1235 44.4634 22.85 34.2935 22.85C24.1235 22.85 15.85 31.1237 15.85 41.2935ZM17.6138 41.2935C17.6138 32.0966 25.0964 24.6138 34.2935 24.6138C43.4904 24.6138 50.9732 32.0964 50.9732 41.2935C50.9732 50.4904 43.4904 57.9732 34.2935 57.9732C25.0966 57.9732 17.6138 50.4905 17.6138 41.2935Z" fill="#483EA8" stroke="#F9FFF9" stroke-width="0.3"/>
<path d="M33.9422 48.6577C33.9422 49.0364 34.2493 49.3435 34.6279 49.3435C35.0064 49.3435 35.3136 49.0368 35.3136 48.6577V34.7292C35.3136 34.3505 35.0065 34.0435 34.6279 34.0435C34.2492 34.0435 33.9422 34.3505 33.9422 34.7292V48.6577Z" fill="#483EA8" stroke="#483EA8" stroke-width="0.3"/>
<path d="M34.6279 35.7003L30.8272 39.5009C30.5596 39.769 30.1251 39.7689 29.8573 39.501C29.5894 39.2331 29.5894 38.7991 29.8573 38.5313L34.1429 34.2457C34.1429 34.2457 34.1429 34.2456 34.143 34.2456C34.4105 33.9776 34.8449 33.9778 35.1127 34.2456L39.3984 38.5313C39.6662 38.7991 39.6663 39.2329 39.3986 39.5008C39.2646 39.6353 39.0884 39.7018 38.9135 39.7019L34.6279 35.7003ZM34.6279 35.7003L38.4286 39.501C38.5624 39.6348 38.7384 39.7018 38.9135 39.7019L34.6279 35.7003Z" fill="#483EA8" stroke="#483EA8" stroke-width="0.3"/>
</svg>
